:SAMPLES-PER-SECOND 30
:FRAME-RANGE 1-4244
:FULLY-SPECIFIED
:DEGREES
4112
root  19.1468 38.1933 -99.8906 8.55835 -66.4499 -2.00818
RightUpLeg  -5.3627 -12.819 2.17797
RightLeg  55.4361 4.5226 6.62386
RightFoot  -4.63924 -1.16769 19.2292
RightToes  -1.33073e-015 0 -3.6325e-017
Spine  -2.87647 3.71421 6.33663
Spine1  11.8977 7.06665 -11.9765
HEad  -21.246 43.3553 -25.9607
LeftShoulder1  0.570691 1.29926 -22.3698
LeftArm  4.47505 15.8914 -51.1603
LeftForeArm  35.3568 -29.9715 -4.576
LeftHand  -0.111092 4.26587 9.99435
RightShoulder  2.79107 7.3442 19.9107
RightArm  36.3609 18.173 81.7926
RightForeArm  36.1853 17.9254 8.07786
RightHand  -0.163554 -4.52633 -20.7803
LeftUpLeg  -30.304 -0.251674 -7.71312
LeftLeg  25.9968 12.9287 7.10707
LeftFoot  -3.46141 -0.651966 9.7444
LeftToes  2.72522e-012 8.43823e-011 6.24977e-012
4113
root  17.8803 38.1944 -99.5492 5.52252 -64.4007 0.425964
RightUpLeg  -9.08277 -12.5464 0.42731
RightLeg  62.8831 2.90434 5.6124
RightFoot  -2.30791 -1.54493 19.189
RightToes  -1.33073e-015 0 -3.6325e-017
Spine  -2.51113 3.35454 4.48111
Spine1  11.8055 6.4546 -11.2291
HEad  -19.3226 43.667 -24.6794
LeftShoulder1  0.521883 1.48725 -22.6423
LeftArm  4.35581 15.9078 -51.0621
LeftForeArm  35.9887 -31.6585 -4.93173
LeftHand  -0.111162 4.32655 10.6036
RightShoulder  2.77271 6.96458 20.7569
RightArm  52.3024 16.0295 82.0138
RightForeArm  23.9166 23.3988 3.88203
RightHand  -0.136334 -4.65749 -20.0991
LeftUpLeg  -28.0617 -1.04012 -8.54787
LeftLeg  27.8971 11.928 7.10862
LeftFoot  -6.05649 -0.361608 8.60998
LeftToes  2.72522e-012 8.43823e-011 6.24977e-012
4114
root  16.6434 38.2426 -99.1916 3.6756 -62.6147 1.84735
RightUpLeg  -12.6402 -11.4246 -0.894306
RightLeg  67.7755 1.26396 2.71377
RightFoot  -4.65178 -1.03689 17.078
RightToes  -1.33073e-015 0 -3.6325e-017
Spine  -2.54886 3.10217 3.3095
Spine1  12.0282 6.03465 -10.8605
HEad  -18.3648 43.9538 -23.6794
LeftShoulder1  0.459574 1.7057 -22.6697
LeftArm  3.8096 15.8873 -51.3534
LeftForeArm  36.2341 -33.5018 -5.35999
LeftHand  -0.191063 3.5183 11.1982
RightShoulder  2.75247 6.64397 21.468
RightArm  52.9571 14.5733 81.3041
RightForeArm  26.5163 27.9929 4.60302
RightHand  -0.129119 -4.66181 -18.939
LeftUpLeg  -25.6981 -1.91487 -8.95217
LeftLeg  29.0015 11.2742 7.03988
LeftFoot  -8.35928 -0.152297 7.77471
LeftToes  2.72522e-012 8.43823e-011 6.24977e-012
4115
root  15.429 38.4043 -98.811 3.39618 -60.8771 1.60791
RightUpLeg  -15.9298 -10.0281 -1.83414
RightLeg  69.3835 0.144827 -0.351338
RightFoot  -5.61598 -0.750365 14.1701
RightToes  -1.33073e-015 0 -3.6325e-017
Spine  -2.47996 2.89556 3.38546
Spine1  11.7734 5.72672 -10.7331
HEad  -17.6491 44.2566 -23.1794
LeftShoulder1  0.53168 1.45437 -22.6627
LeftArm  3.20402 16.153 -51.608
LeftForeArm  36.7444 -35.8941 -5.93366
LeftHand  -0.187175 3.58083 11.3263
RightShoulder  2.71083 6.55092 21.2943
RightArm  50.9141 12.8424 80.9048
RightForeArm  30.1275 32.3825 5.42631
RightHand  -0.114274 -4.7151 -17.7136
LeftUpLeg  -22.8829 -3.18811 -8.51219
LeftLeg  28.9993 11.0674 6.92183
LeftFoot  -10.1346 -0.00963708 6.70374
LeftToes  2.72522e-012 8.43823e-011 6.24977e-012
4116
root  14.2661 38.5554 -98.4686 3.13855 -59.1405 1.49341
RightUpLeg  -18.8727 -7.83036 -3.28772
RightLeg  68.3956 -0.297814 -1.56991
RightFoot  -7.7137 -0.402033 11.0016
RightToes  -1.33073e-015 0 -3.6325e-017
Spine  -2.17691 2.68303 3.21744
Spine1  11.3717 5.36513 -10.5382
HEad  -17.169 44.287 -23.1291
LeftShoulder1  0.56368 1.35296 -22.8181
LeftArm  3.20096 16.0785 -51.656
LeftForeArm  37.9717 -38.62 -6.59439
LeftHand  -0.171514 3.79612 11.6759
RightShoulder  2.6354 6.43651 20.809
RightArm  48.2371 11.2945 80.467
RightForeArm  33.4591 36.8975 6.38838
RightHand  -0.0887963 -4.86134 -16.8011
LeftUpLeg  -20.1685 -4.54456 -8.10607
LeftLeg  28.6475 10.9307 6.75597
LeftFoot  -11.6953 0.0884032 5.82748
LeftToes  2.72522e-012 8.43823e-011 6.24977e-012
4117
root  13.1258 38.6621 -98.1509 3.02014 -57.2338 1.44537
RightUpLeg  -21.3758 -6.22441 -4.97582
RightLeg  64.9781 -1.04888 -3.07374
RightFoot  -11.3906 -0.0729751 10.697
RightToes  -1.33073e-015 0 -3.6325e-017
Spine  -1.76208 2.32083 2.88157
Spine1  10.6623 4.84534 -10.4315
HEad  -17.3547 44.2575 -23.6135
LeftShoulder1  0.572245 1.32574 -22.8559
LeftArm  3.3632 16.0696 -51.6341
LeftForeArm  39.606 -41.8868 -7.44818
LeftHand  -0.187858 3.64808 11.8151
RightShoulder  2.57246 6.24245 20.6892
RightArm  45.6702 9.97392 79.4812
RightForeArm  36.4905 41.7987 7.61501
RightHand  -0.0486352 -5.13493 -15.9341
LeftUpLeg  -17.7987 -5.16057 -7.67698
LeftLeg  28.2847 9.83657 6.04879
LeftFoot  -13.1881 0.159999 5.00294
LeftToes  2.72522e-012 8.43823e-011 6.24977e-012
4118
root  11.9815 38.7411 -97.8483 3.49658 -55.2579 1.00769
RightUpLeg  -23.6208 -5.07742 -6.39566
RightLeg  59.5664 -2.62496 -5.30535
RightFoot  -13.6438 0.117396 10.4362
RightToes  -1.33073e-015 0 -3.6325e-017
Spine  -1.4912 1.88612 2.61904
Spine1  9.79139 4.24282 -10.0924
HEad  -17.9393 44.1746 -24.4022
LeftShoulder1  0.605023 1.21129 -22.8404
LeftArm  3.4405 16.1081 -51.5287
LeftForeArm  41.4443 -45.4493 -8.48595
LeftHand  -0.208025 3.47033 11.9866
RightShoulder  2.53083 6.04216 20.8284
RightArm  43.1938 8.92086 77.986
RightForeArm  39.3724 46.808 9.10638
RightHand  -0.0299821 -5.27271 -15.1433
LeftUpLeg  -15.6455 -5.58141 -6.93958
LeftLeg  27.585 8.8898 5.36872
LeftFoot  -14.734 0.227525 4.68925
LeftToes  2.72522e-012 8.43823e-011 6.24977e-012
4119
root  10.8177 38.7916 -97.4852 3.26563 -53.4979 1.26398
RightUpLeg  -24.7852 -4.06495 -8.83899
RightLeg  52.2111 -3.75709 -5.55337
RightFoot  -14.8196 0.228181 10.8073
RightToes  -1.33073e-015 0 -3.6325e-017
Spine  -1.40704 1.51725 2.42533
Spine1  9.37803 3.8954 -10.2407
HEad  -18.819 43.9489 -25.4584
LeftShoulder1  0.674021 0.963158 -22.7191
LeftArm  3.40691 16.1036 -51.4722
LeftForeArm  43.2655 -49.2843 -9.78059
LeftHand  -0.180447 3.74232 11.9516
RightShoulder  2.4475 5.71171 20.8969
RightArm  40.7108 8.17756 76.5701
RightForeArm  41.8611 51.2944 10.724
RightHand  -0.0223183 -5.33597 -14.2589
LeftUpLeg  -13.1794 -6.34872 -6.57359
LeftLeg  26.7913 7.98392 4.72276
LeftFoot  -16.1505 0.263879 3.97138
LeftToes  2.72522e-012 8.43823e-011 6.24977e-012
4120
root  9.66788 38.8529 -97.165 3.81885 -51.5005 0.92627
RightUpLeg  -25.3824 -1.92964 -11.1616
RightLeg  43.3138 -4.6577 -4.97621
RightFoot  -14.4997 0.211448 11.2173
RightToes  -1.33073e-015 0 -3.6325e-017
Spine  -1.53184 1.11182 2.34129
Spine1  9.01744 3.39134 -9.67029
HEad  -19.7703 43.5694 -26.6887
LeftShoulder1  0.742881 0.722938 -22.7088
LeftArm  3.40157 15.7861 -51.3356
LeftForeArm  44.8733 -52.9943 -11.267
LeftHand  -0.16237 3.93363 12.0309
RightShoulder  2.36734 5.36958 21.0487
RightArm  38.1381 7.59939 75.1774
RightForeArm  44.539 55.3203 12.4597
RightHand  -0.00991906 -5.44868 -13.4951
LeftUpLeg  -11.1119 -6.68721 -5.62581
LeftLeg  25.7744 6.57404 3.8085
LeftFoot  -17.2985 0.301187 3.78964
LeftToes  2.72522e-012 8.43823e-011 6.24977e-012
4121
root  8.47366 38.8194 -96.8267 3.48694 -49.9933 1.62817
RightUpLeg  -24.9713 0.688987 -14.4521
RightLeg  32.8198 -4.95267 -3.66777
RightFoot  -15.3272 0.292243 11.3624
RightToes  -1.33073e-015 0 -3.6325e-017
Spine  -2.05945 0.905518 1.77108
Spine1  9.30811 3.24947 -9.50686
HEad  -20.8042 43.2943 -27.8523
LeftShoulder1  0.787058 0.568375 -22.6984
LeftArm  3.45222 15.1141 -51.1385
LeftForeArm  46.1213 -56.3394 -12.883
LeftHand  -0.173309 3.82609 12.0448
RightShoulder  2.33433 5.27869 20.9447
RightArm  35.2158 7.06556 73.9561
RightForeArm  47.1364 58.8354 14.3021
RightHand  0.00367581 -5.57642 -13.1599
LeftUpLeg  -8.9562 -6.80356 -5.32258
LeftLeg  24.8441 5.3562 3.10846
LeftFoot  -18.6158 0.323061 3.32219
LeftToes  2.72522e-012 8.43823e-011 6.24977e-012
4122
root  7.26403 38.7742 -96.4617 3.5199 -48.6993 2.15588
RightUpLeg  -23.9185 1.97451 -17.7294
RightLeg  20.9345 -3.26123 -1.58241
RightFoot  -15.1508 0.270068 11.1891
RightToes  -1.33073e-015 0 -3.6325e-017
Spine  -2.64741 0.70945 2.09615
Spine1  9.25408 3.32049 -10.1903
HEad  -21.5167 43.0251 -28.7228
LeftShoulder1  0.777229 0.591909 -22.5789
LeftArm  3.66826 14.5274 -50.6584
LeftForeArm  47.0625 -59.3331 -14.6364
LeftHand  -0.187388 3.68533 12.043
RightShoulder  2.34831 5.30327 21.036
RightArm  32.3071 6.31771 72.9526
RightForeArm  49.2109 61.4958 15.9896
RightHand  0.00824446 -5.62619 -12.8576
LeftUpLeg  -6.85696 -6.32973 -4.86371
LeftLeg  23.5407 3.59863 2.37628
LeftFoot  -19.7146 0.326767 2.84582
LeftToes  2.72522e-012 8.43823e-011 6.24977e-012
4123
root  6.02312 38.7166 -96.064 3.44678 -47.4973 2.98572
RightUpLeg  -23.0214 0.349816 -19.3656
RightLeg  10.2875 0.55908 -1.02582
RightFoot  -13.761 0.161033 12.0231
RightToes  -1.33073e-015 0 -3.6325e-017
Spine  -3.47436 0.63901 2.37518
Spine1  9.31667 3.46639 -10.6677
HEad  -21.2269 43.0697 -29.0671
LeftShoulder1  0.764688 0.63176 -22.5341
LeftArm  3.69873 14.0309 -50.2043
LeftForeArm  48.349 -61.8555 -16.3583
LeftHand  -0.190152 3.73298 12.1383
RightShoulder  2.32502 5.25601 20.9049
RightArm  29.5555 5.30719 72.3365
RightForeArm  50.7607 63.6861 17.6652
RightHand  0.038254 -5.91881 -12.5917
LeftUpLeg  -4.5289 -5.32009 -4.60442
LeftLeg  21.6509 1.41112 1.82375
LeftFoot  -20.6087 0.323832 2.46798
LeftToes  2.72522e-012 8.43823e-011 6.24977e-012
4124
root  4.69771 38.5365 -95.6589 3.29291 -46.2037 3.88147
RightUpLeg  -22.503 -7.77634 -17.2111
RightLeg  2.08185 10.9627 -3.23368
RightFoot  -14.0146 0.267501 15.4766
RightToes  -1.33073e-015 0 -3.6325e-017
Spine  -4.46612 0.489856 2.29598
Spine1  9.39164 3.43552 -10.9876
HEad  -20.7534 43.4724 -29.7591
LeftShoulder1  0.718744 0.825897 -22.9423
LeftArm  3.55311 13.7044 -49.4612
LeftForeArm  49.8657 -64.2283 -18.2705
LeftHand  -0.192778 3.75378 12.1697
RightShoulder  2.03373 4.05532 21.3884
RightArm  28.6972 4.71548 72.6023
RightForeArm  52.0409 64.4935 18.2802
RightHand  0.0153696 -5.69378 -12.8159
LeftUpLeg  -2.42475 -3.8699 -4.10228
LeftLeg  20.4919 -1.31962 1.26473
LeftFoot  -21.9254 0.310876 1.93434
LeftToes  2.72522e-012 8.43823e-011 6.24977e-012
4125
root  3.34857 38.262 -95.3083 3.0968 -44.7888 4.7301
RightUpLeg  -22.9122 -10.9911 -17.3988
RightLeg  -0.357071 12.3861 -2.75004
RightFoot  -14.9927 0.474946 17.9768
RightToes  -1.33073e-015 0 -3.6325e-017
Spine  -4.58127 0.0536654 2.05844
Spine1  8.77756 3.05841 -11.4192
HEad  -21.1457 44.0095 -31.2027
LeftShoulder1  0.616068 1.21336 -23.4281
LeftArm  2.9351 13.9666 -48.4956
LeftForeArm  51.6063 -66.7834 -20.8027
LeftHand  -0.182435 3.99439 12.5045
RightShoulder  2.06436 4.24173 21.0959
RightArm  27.4097 4.32444 72.0372
RightForeArm  53.5717 66.3507 20.0477
RightHand  0.0267642 -5.80274 -12.7513
LeftUpLeg  -0.782841 -3.23155 -3.33758
LeftLeg  20.4158 -3.60595 0.695871
LeftFoot  -23.438 0.255947 1.08679
LeftToes  2.72522e-012 8.43823e-011 6.24977e-012
